<svg t="1641100563787" class="icon" viewBox="0 0 1024 1024" version="1.1" xmlns="http://www.w3.org/2000/svg" p-id="2153" width="128" height="128">
	<path d="M181.114787 247.618184v660.285606c0 50.560887 49.452714 91.913865 109.894471 91.913865 60.445788 0 109.902531-41.352978 109.902532-91.913865V247.618184c0-50.552827-49.460773-91.901776-109.902532-91.901775C230.57556 155.716409 181.114787 197.065357 181.114787 247.618184z" fill="#FFFFFF" p-id="2154">
	</path>
	<path d="M291.009258 1001.828485c-61.70306 0-111.909331-42.134744-111.909331-93.928724V247.618184c0-51.785921 50.202242-93.916635 111.909331-93.916635 61.71112 0 111.917391 42.130714 111.917391 93.916635v660.285606c0 51.789951-50.206271 93.924695-111.917391 93.924695z m0-844.097217C231.526574 157.731268 183.129646 198.056668 183.129646 247.618184v660.285606c0 49.569576 48.392898 89.899005 107.879612 89.899006 59.490744 0 107.887672-40.32943 107.887672-89.899006V247.618184c0-49.561516-48.400957-89.886916-107.887672-89.886916z" fill="#6E6E96" p-id="2155">
	</path>
	<path d="M181.114787 247.618184v660.285606c0 50.560887 49.452714 91.913865 109.894471 91.913865 60.445788 0 109.902531-41.352978 109.902532-91.913865V247.618184c0-50.552827-49.460773-91.901776-109.902532-91.901775C230.57556 155.716409 181.114787 197.065357 181.114787 247.618184z" fill="#FFFFFF" p-id="2156">
	</path>
	<path d="M291.009258 1023.991941C217.08406 1023.991941 156.936472 971.91185 156.936472 907.90379V247.618184c0-64.00403 60.143559-116.080091 134.072786-116.080091 73.933258 0 134.080846 52.072031 134.080847 116.080091v660.285606c0 64.008059-60.147588 116.08815-134.080847 116.088151z m0-844.097217C244.546596 179.894724 205.293102 210.911472 205.293102 247.618184v660.285606c0 36.714771 39.253495 67.73555 85.716156 67.73555 46.466692 0 85.724216-31.016749 85.724217-67.73555V247.618184c0-36.706712-39.257524-67.723461-85.724217-67.72346z" fill="#6E6E96" p-id="2157">
	</path>
	<path d="M404.63928 247.618184v660.285606c0 50.560887 49.452714 91.913865 109.902531 91.913865 60.437728 0 109.894472-41.352978 109.894472-91.913865V247.618184c0-50.552827-49.448684-91.901776-109.894472-91.901775S404.63928 197.065357 404.63928 247.618184z" fill="#FFBF00" p-id="2158">
	</path>
	<path d="M514.541811 1001.828485c-61.71112 0-111.917391-42.134744-111.917391-93.928724V247.618184c0-51.785921 50.206271-93.916635 111.917391-93.916635 61.70306 0 111.909331 42.130714 111.909331 93.916635v660.285606c0 51.789951-50.202242 93.924695-111.909331 93.924695z m0-844.097217c-59.490744 0-107.887672 40.32137-107.887672 89.886916v660.285606c0 49.569576 48.400957 89.899005 107.887672 89.899006s107.879612-40.32943 107.879612-89.899006V247.618184c0-49.561516-48.392898-89.886916-107.879612-89.886916z" fill="#6E6E96" p-id="2159">
	</path>
	<path d="M404.63928 247.618184v660.285606c0 50.560887 49.452714 91.913865 109.902531 91.913865 60.437728 0 109.894472-41.352978 109.894472-91.913865V247.618184c0-50.552827-49.448684-91.901776-109.894472-91.901775S404.63928 197.065357 404.63928 247.618184z" fill="#FFBF00" p-id="2160">
	</path>
	<path d="M514.541811 1023.991941c-73.933258 0-134.080846-52.080091-134.080846-116.09218V247.618184c0-64.00403 60.147588-116.080091 134.080846-116.080091 73.929228 0 134.072787 52.072031 134.072787 116.080091v660.285606c0 64.008059-60.143559 116.08815-134.072787 116.088151z m0-844.097217c-46.466692 0-85.724216 31.012719-85.724216 67.72346v660.285606c0 36.714771 39.257524 67.73555 85.724216 67.73555 46.462662 0 85.716157-31.016749 85.716157-67.73555V247.618184c0-36.706712-39.249465-67.723461-85.716157-67.72346z" fill="#6E6E96" p-id="2161">
	</path>
	<path d="M623.082297 247.618184v660.285606c0 50.560887 49.456743 91.913865 109.898502 91.913865s109.894472-41.352978 109.894471-91.913865V247.618184c0-50.552827-49.448684-91.901776-109.894471-91.901775s-109.898501 41.348948-109.898502 91.901775z" fill="#8AE9FF" p-id="2162">
	</path>
	<path d="M732.980799 1001.828485c-61.70709 0-111.913361-42.134744-111.913361-93.928724V247.618184c0-51.785921 50.206271-93.916635 111.913361-93.916635 61.70306 0 111.909331 42.130714 111.909331 93.916635v660.285606c0 51.789951-50.202242 93.924695-111.909331 93.924695z m0-844.097217c-59.490744 0-107.883642 40.32137-107.883642 89.886916v660.285606c0 49.569576 48.396927 89.899005 107.883642 89.899006 59.486715 0 107.879612-40.32943 107.879612-89.899006V247.618184c0-49.561516-48.392898-89.886916-107.879612-89.886916z" fill="#6E6E96" p-id="2163">
	</path>
	<path d="M623.082297 247.618184v660.285606c0 50.560887 49.456743 91.913865 109.898502 91.913865s109.894472-41.352978 109.894471-91.913865V247.618184c0-50.552827-49.448684-91.901776-109.894471-91.901775s-109.898501 41.348948-109.898502 91.901775z" fill="#8AE9FF" p-id="2164">
	</path>
	<path d="M732.980799 1023.991941c-73.933258 0-134.076817-52.080091-134.076817-116.09218V247.618184c0-64.00403 60.147588-116.080091 134.076817-116.080091 73.929228 0 134.072787 52.072031 134.072786 116.080091v660.285606c0 64.008059-60.143559 116.08815-134.072786 116.088151z m0-844.097217c-46.466692 0-85.720186 31.012719-85.720187 67.72346v660.285606c0 36.714771 39.253495 67.73555 85.720187 67.73555 46.462662 0 85.716157-31.016749 85.716156-67.73555V247.618184c0-36.706712-39.249465-67.723461-85.716156-67.72346z" fill="#6E6E96" p-id="2165">
	</path>
	<path d="M280.270057 959.093313c-48.276036 0-87.557738-42.134744-87.557738-93.928724V204.887042c0-51.785921 39.277673-93.916635 87.557738-93.916635 48.280065 0 87.561768 42.130714 87.561768 93.916635v660.281577c0 51.789951-39.281703 93.924695-87.561768 93.924694z m0-844.093187c-46.05566 0-83.528019 40.32137-83.528019 89.886916v660.281577c0 49.569576 37.468329 89.899005 83.528019 89.899005 46.05969 0 83.532049-40.32943 83.532049-89.899005V204.887042c0-49.565546-37.472359-89.886916-83.532049-89.886916z" fill="#6E6E96" opacity=".15" p-id="2166">
	</path>
	<path d="M280.270057 981.256769c-60.498174 0-109.721194-52.080091-109.721194-116.09218V204.887042a24.178315 24.178315 0 0 1 48.35663 0v660.281577c0 37.351467 27.527012 67.73555 61.364564 67.735549 33.837552 0 61.368593-30.384083 61.368593-67.735549V204.887042a24.178315 24.178315 0 0 1 48.35663 0v660.281577c0 64.008059-49.22302 116.08815-109.725223 116.08815z" fill="#6E6E96" opacity=".15" p-id="2167">
	</path>
	<path d="M494.622909 981.256769c-64.523863 0-117.014986-52.080091-117.014985-116.09218V204.887042a24.178315 24.178315 0 0 1 48.35663 0v660.281577c0 37.351467 30.799144 67.73555 68.658355 67.735549 37.855182 0 68.650296-30.384083 68.650296-67.735549V204.887042a24.178315 24.178315 0 0 1 48.35663 0v660.281577c0 64.008059-52.487092 116.08815-117.006926 116.08815z" fill="#6E6E96" opacity=".15" p-id="2168">
	</path>
	<path d="M708.572789 989.316207c-64.306259 0-116.620073-52.080091-116.620073-116.09218V212.94648a24.178315 24.178315 0 0 1 48.356631 0v660.281577c0 37.351467 30.625866 67.73555 68.263442 67.73555 37.645637 0 68.267473-30.384083 68.267473-67.73555V212.94648a24.178315 24.178315 0 0 1 48.35663 0v660.281577c0 64.008059-52.317844 116.08815-116.624103 116.08815z" fill="#6E6E96" opacity=".15" p-id="2169">
	</path>
	<path d="M181.114787 0v226.159929C181.114787 276.704697 230.5675 318.065735 291.009258 318.065735c60.445788 0 109.902531-41.361038 109.902532-91.905806V0" fill="#F0F0FF" p-id="2170">
	</path>
	<path d="M291.009258 320.076565C229.302169 320.076565 179.099927 277.945851 179.099927 226.159929V0h4.029719v226.159929c0 49.565546 48.392898 89.890946 107.879612 89.890946 59.490744 0 107.887672-40.3254 107.887672-89.890946V0h4.029719v226.159929c0 51.785921-50.206271 93.916635-111.917391 93.916636z" fill="#6E6E96" p-id="2171">
	</path>
	<path d="M181.114787 0v226.159929C181.114787 276.704697 230.5675 318.065735 291.009258 318.065735c60.445788 0 109.902531-41.361038 109.902532-91.905806V0" fill="#F0F0FF" p-id="2172">
	</path>
	<path d="M291.009258 342.24002C217.08406 342.24002 156.936472 290.167989 156.936472 226.159929V0h48.35663v226.159929c0 36.710742 39.253495 67.72749 85.716156 67.727491 46.466692 0 85.724216-31.012719 85.724217-67.727491V0h48.35663v226.159929c0 64.008059-60.147588 116.080091-134.080847 116.080091z" fill="#6E6E96" p-id="2173">
	</path>
	<path d="M404.63928 0v226.159929c0 50.544768 49.452714 91.905805 109.902531 91.905806 60.437728 0 109.894472-41.361038 109.894472-91.905806V0" fill="#F0F0FF" p-id="2174">
	</path>
	<path d="M514.541811 320.076565c-61.71112 0-111.917391-42.130714-111.917391-93.920665V0h4.029719v226.159929c0 49.565546 48.400957 89.890946 107.887672 89.890946s107.879612-40.3254 107.879612-89.890946V0h4.029719v226.159929c0 51.785921-50.202242 93.916635-111.909331 93.916636z" fill="#6E6E96" p-id="2175">
	</path>
	<path d="M404.63928 0v226.159929c0 50.544768 49.452714 91.905805 109.902531 91.905806 60.437728 0 109.894472-41.361038 109.894472-91.905806V0" fill="#F0F0FF" p-id="2176">
	</path>
	<path d="M514.541811 342.24002c-73.933258 0-134.080846-52.072031-134.080846-116.08412V0h48.35663v226.159929c0 36.710742 39.257524 67.72749 85.724216 67.727491 46.462662 0 85.716157-31.012719 85.716157-67.727491V0h48.35663v226.159929c0 64.008059-60.143559 116.080091-134.072787 116.080091z" fill="#6E6E96" p-id="2177">
	</path>
	<path d="M623.082297 0v226.159929c0 50.544768 49.456743 91.905805 109.898502 91.905806s109.894472-41.361038 109.894471-91.905806V0" fill="#F0F0FF" p-id="2178">
	</path>
	<path d="M732.980799 320.076565c-61.70709 0-111.913361-42.130714-111.913361-93.920665V0h4.029719v226.159929c0 49.565546 48.396927 89.890946 107.883642 89.890946 59.486715 0 107.879612-40.3254 107.879612-89.890946V0h4.029719v226.159929c0 51.785921-50.202242 93.916635-111.909331 93.916636z" fill="#6E6E96" p-id="2179">
	</path>
	<path d="M623.082297 0v226.159929c0 50.544768 49.456743 91.905805 109.898502 91.905806s109.894472-41.361038 109.894471-91.905806V0" fill="#F0F0FF" p-id="2180">
	</path>
	<path d="M732.980799 342.24002c-73.933258 0-134.076817-52.072031-134.076817-116.08412V0h48.35663v226.159929c0 36.710742 39.253495 67.72749 85.720187 67.727491 46.462662 0 85.716157-31.012719 85.716156-67.727491V0h48.35663v226.159929c0 64.008059-60.143559 116.080091-134.072786 116.080091z" fill="#6E6E96" p-id="2181">
	</path>
</svg>
