<svg t="1643272657775" class="icon" viewBox="0 0 1024 1024" version="1.1" xmlns="http://www.w3.org/2000/svg" p-id="6206" width="32" height="32"><path d="M495.053669 84.964299c-253.035821 0-458.171319 205.131417-458.171319 458.163156 0 253.043984 205.135498 458.1754 458.171319 458.1754 253.039902 0 458.167237-205.131417 458.167237-458.1754 0.004081-253.039902-205.127335-458.163156-458.167237-458.163156z m0 569.461204c-61.471264 0-111.298048-49.830865-111.298048-111.306211 0-61.463101 49.826784-111.289885 111.298048-111.289885s111.298048 49.826784 111.298048 111.289885c-0.008163 61.471264-49.830865 111.306211-111.298048 111.306211z" fill="#F0F0FF" p-id="6207"></path><path d="M592.515479 533.560451l314.070366 128.966802s-28.068381 207.004819-289.654915 289.654915l-111.726605-329.163702c0-0.008163 87.302991 2.518277 87.311154-89.458015zM481.486809 422.539944l-128.958639-314.070366s-207.004819 28.068381-289.650834 289.650834l329.167784 111.730685c-0.004081-0.004081-2.530521-87.311154 89.441689-87.311153z" fill="#FFFFFF" p-id="6208"></path><path d="M903.067604 516.361068c0-239.791398-194.388945-434.184424-434.188506-434.184424C229.083619 82.176644 34.686511 276.565589 34.686511 516.361068c0 239.803642 194.397108 434.196669 434.192587 434.196669 63.765059 0 124.313908-13.746446 178.85889-38.435356-45.859579 18.660555-96.000638 28.970389-148.562018 28.970389-217.837083 0-394.430748-176.593665-394.430748-394.43483 0-217.833002 176.593665-394.418504 394.430748-394.418503 217.837083 0 394.426667 176.589583 394.426667 394.418503 0 52.565461-10.305753 102.70652-28.974471 148.566099 24.684829-54.540901 38.439437-115.09383 38.439438-178.862971z" fill="#FFFFFF" p-id="6209"></path><path d="M529.897317 815.329935s62.058998 84.96838 245.542212 0c0 0 267.965897-235.644608 54.708242-515.801905 0 0-71.217853-58.944824-71.217854 161.455433l-24.488917 265.296605-204.543683 89.049867z" fill="#DDDDEB" p-id="6210"></path><path d="M377.963992 523.144498c0 17.052449 4.236583 33.104935 11.693458 47.190144a111.338863 111.338863 0 0 1-3.901901-29.207115c0-61.467183 49.826784-111.293967 111.298048-111.293967 10.109841 0 19.897245 1.371379 29.211197 3.901901a100.62088 100.62088 0 0 0-47.194225-11.685295c-55.842895 0-101.106577 45.259601-101.106577 101.094332z m119.085524-440.180127c-253.039902 0-458.171319 205.127335-458.171319 458.163156 0 253.043984 205.131417 458.171319 458.171319 458.171318 253.043984 0 458.163156-205.127335 458.163156-458.171318 0.004081-253.035821-205.119172-458.163156-458.163156-458.163156z m-17.983028 856.393767c-229.861142 0-416.209559-186.340254-416.209559-416.21364 0-229.865223 186.348417-416.201396 416.209559-416.201396 229.865223 0 416.201396 186.332091 416.201395 416.201396s-186.336173 416.21364-416.201395 416.21364z" fill="#DDDDEB" p-id="6211"></path><path d="M495.053669 64.981342C231.397821 64.981342 16.903475 279.475688 16.903475 543.123373c0 263.651766 214.498428 478.150194 478.150194 478.150194s478.146112-214.502509 478.146113-478.150194-214.502509-478.142031-478.146113-478.142031z m438.184281 478.146113c0 241.615822-196.57254 438.188362-438.184281 438.188362-241.619904 0-438.188362-196.57254-438.188362-438.188362 0-241.611741 196.57254-438.176118 438.188362-438.176118 241.611741-0.008163 438.184281 196.560296 438.184281 438.176118z" fill="#6E6E96" p-id="6212"></path><path d="M495.053669 634.446628c-50.353296 0-91.315092-40.961796-91.315091-91.315092a90.702869 90.702869 0 0 1 26.741897-64.56503 90.711032 90.711032 0 0 1 64.573194-26.741898c50.345133 0 91.315092 40.957714 91.315092 91.306928s-40.965877 91.315092-91.315092 91.315092z m131.276923-91.319173c0-72.376995-58.891765-131.264679-131.276923-131.264679-35.06813 0-68.034294 13.652571-92.829323 38.4476-24.795029 24.786866-38.4476 57.75303-38.4476 92.817079 0 72.385158 58.891765 131.281005 131.276923 131.281005s131.276923-58.895846 131.276923-131.281005z" fill="#6E6E96" p-id="6213"></path><path d="M802.43856 606.280291V323.416969c0-29.545879 23.411405-59.752958 52.014461-67.124122l112.783709-28.31327V65.446632a9113.828155 9113.828155 0 0 1-80.882813 19.962549L801.189626 105.873753c-28.729582 6.905875-58.76932 20.015608-66.756789 29.13773-7.995632 9.11804-14.521928 40.75364-14.521928 70.299519v365.150166l-53.68787-1.624431s-57.136726-1.734632-103.371802 46.675876c-56.026562 58.642794-64.462994 141.513291-18.852385 185.074993 45.610609 43.586192 135.489017 23.884857 191.515579-34.762018-0.008163-0.016326 66.92413-63.581393 66.924129-159.545297z" fill="#FF9191" p-id="6214"></path><path d="M577.597647 629.593741s-95.188422 116.069306 31.337651 116.069305c184.687252 0 173.095831-231.624344 173.095831-231.624344s59.132573 272.941229-165.6512 309.939902c0-0.004081-169.251071-15.068847-38.782282-194.384863zM782.031129 323.416969V237.799633s5.379399-46.284054 64.601764-64.605846c59.230528-18.321792 100.196406-18.321792 100.196406-18.321792l15.432099 53.320536s-180.230269 67.454723-180.230269 115.224438z" fill="#733F3F" opacity=".15" p-id="6215"></path><path d="M822.845992 606.280291V323.416969c0-20.187031 17.146324-42.320931 36.700724-47.361566l112.661264-28.276537a20.407431 20.407431 0 0 0 15.436181-19.799289V65.446632a20.489061 20.489061 0 0 0-25.390926-19.795208l-80.678738 19.909489-85.164292 20.464572c-20.248253 4.865132-62.471228 18.558518-77.340082 35.525257-15.481077 17.660591-19.570726 62.50388-19.570727 83.752097v365.150166a20.395187 20.395187 0 0 1 21.023736-20.399268l-53.679707-1.624432c-2.710107-0.085711-66.834337-1.379542-118.754924 52.97361-35.247715 36.888473-54.871501 83.886787-53.838885 128.93415 0.767319 33.58655 13.42809 63.773222 35.647701 84.99287 20.799254 19.872756 49.324761 29.982598 82.490918 29.227523 48.71662-1.110164 100.253546-25.276644 137.872605-64.650742a22.770612 22.770612 0 0 1-0.702015 0.702015c2.995811-2.840714 73.287167-70.793379 73.287167-174.32844z m-102.090216 145.431518c-29.847909 31.243777-71.728039 51.185919-109.289956 52.038949-15.415774 0.355089-37.186421-2.473381-53.369514-17.938132-14.538254-13.889298-22.513478-33.402883-23.03999-56.414302-0.779564-34.30081 14.717839-70.679097 42.545412-99.804583 39.500624-41.349537 87.519309-40.390388 88.005006-40.378144l53.671544 1.628513a20.448246 20.448246 0 0 0 14.840284-5.750814 20.391105 20.391105 0 0 0 6.207941-14.648454V205.302839c0-28.460204 6.314059-52.332817 9.69353-57.144889 0 0-0.08163 0.1102-0.244889 0.297949l-0.089793 0.097955c4.199849-4.261072 27.243921-15.864737 56.279614-22.848159l85.16021-20.460491 81.099131-20.015608c-6.085496 1.501987-12.579141 0.134689-17.517739-3.73456s-7.873187-9.779241-7.873187-16.056567v162.537026a20.415594 20.415594 0 0 1 15.436181-19.795208l-112.783709 28.309188c-37.880274 9.771078-67.450642 47.928893-67.450641 86.919331v282.863322c0 86.200989-59.973359 144.149931-60.5815 144.729502-0.240808 0.240808-0.477534 0.469371-0.697935 0.710179z" fill="#6E6E96" p-id="6216"></path><path d="M650.027518 681.587609a30.223406 52.516483 60.915 1 0-29.383595-52.824439 30.223406 52.516483 60.915 1 0 29.383595 52.824439Z" fill="#FFFFFF" opacity=".55" p-id="6217"></path></svg>