<svg t="1643272724497" class="icon" viewBox="0 0 1024 1024" version="1.1" xmlns="http://www.w3.org/2000/svg" p-id="10932" width="32" height="32"><path d="M505.806452 509.935484m-476.775226 0a476.775226 476.775226 0 1 0 953.550451 0 476.775226 476.775226 0 1 0-953.550451 0Z" fill="#F2F2F2" p-id="10933"></path><path d="M502.511484 967.461161c-263.349677 0-477.601032-215.613935-477.601032-480.635871S239.161806 6.193548 502.511484 6.193548s477.601032 215.609806 477.601032 480.631742-214.251355 480.635871-477.601032 480.635871z m0-919.97729c-240.582194 0-436.31071 197.086968-436.31071 439.341419 0 242.254452 195.728516 439.345548 436.31071 439.345549s436.31071-197.086968 436.31071-439.345549c0-242.254452-195.728516-439.341419-436.31071-439.341419z" opacity=".1" p-id="10934" data-spm-anchor-id="a313x.7781069.0.i16" class="selected" fill="#13227a"></path><path d="M1007.351742 536.369548h-41.290323c0-242.250323-204.618323-439.33729-456.125935-439.33729S53.809548 294.119226 53.809548 536.369548h-41.290322C12.519226 271.351742 235.660387 55.741935 509.935484 55.741935s497.416258 215.609806 497.416258 480.627613z" fill="#FFFFFF" opacity=".49" p-id="10935"></path><path d="M505.806452 53.809548c251.507613 0 456.125935 204.618323 456.125935 456.125936 0 251.511742-204.618323 456.130065-456.125935 456.130064S49.680516 761.447226 49.680516 509.935484 254.298839 53.809548 505.806452 53.809548zM8.390194 509.935484c0 274.283355 223.141161 497.420387 497.416258 497.420387S1003.22271 784.218839 1003.22271 509.935484c0-274.275097-223.141161-497.416258-497.416258-497.416258S8.390194 235.660387 8.390194 509.935484z" fill="#d81e06" p-id="10936" data-spm-anchor-id="a313x.7781069.0.i14" class=""></path><path d="M452.129032 629.677419c0 22.709677-18.580645 41.290323-41.290322 41.290323h-20.645162c-22.709677 0-41.290323-18.580645-41.290322-41.290323V375.787355c0-22.709677 18.580645-41.290323 41.290322-41.290323h20.645162c22.709677 0 41.290323 18.580645 41.290322 41.290323V629.677419z" fill="#FFFFFF" p-id="10937"></path><path d="M410.83871 691.612903h-20.645162c-34.151226 0-61.935484-27.784258-61.935483-61.935484V375.787355c0-34.151226 27.784258-61.935484 61.935483-61.935484h20.645162c34.151226 0 61.935484 27.784258 61.935484 61.935484V629.677419c0 34.151226-27.784258 61.935484-61.935484 61.935484z m-20.645162-336.470709c-11.383742 0-20.645161 9.261419-20.645161 20.645161V629.677419c0 11.383742 9.261419 20.645161 20.645161 20.645162h20.645162c11.383742 0 20.645161-9.261419 20.645161-20.645162V375.787355c0-11.383742-9.261419-20.645161-20.645161-20.645161h-20.645162z" fill="#13227a" p-id="10938" data-spm-anchor-id="a313x.7781069.0.i18" class="selected"></path><path d="M679.225806 629.677419c0 22.709677-18.580645 41.290323-41.290322 41.290323h-20.645161c-22.709677 0-41.290323-18.580645-41.290323-41.290323V375.787355c0-22.709677 18.580645-41.290323 41.290323-41.290323h20.645161c22.709677 0 41.290323 18.580645 41.290322 41.290323V629.677419z" fill="#FFFFFF" p-id="10939"></path><path d="M637.935484 691.612903h-20.645161c-34.151226 0-61.935484-27.784258-61.935484-61.935484V375.787355c0-34.151226 27.784258-61.935484 61.935484-61.935484h20.645161c34.151226 0 61.935484 27.784258 61.935484 61.935484V629.677419c0 34.151226-27.784258 61.935484-61.935484 61.935484z m-20.645161-336.470709c-11.383742 0-20.645161 9.261419-20.645162 20.645161V629.677419c0 11.383742 9.261419 20.645161 20.645162 20.645162h20.645161c11.383742 0 20.645161-9.261419 20.645161-20.645162V375.787355c0-11.383742-9.261419-20.645161-20.645161-20.645161h-20.645161z" fill="#13227a" p-id="10940" data-spm-anchor-id="a313x.7781069.0.i17" class="selected"></path><path d="M410.83871 728.774194h-20.645162c-34.151226 0-61.935484-27.784258-61.935483-61.935484v-253.890065c0-34.151226 27.784258-61.935484 61.935483-61.935484h20.645162c34.151226 0 61.935484 27.784258 61.935484 61.935484V666.83871c0 34.151226-27.784258 61.935484-61.935484 61.935484z m-20.645162-336.47071c-11.383742 0-20.645161 9.261419-20.645161 20.645161V666.83871c0 11.383742 9.261419 20.645161 20.645161 20.645161h20.645162c11.383742 0 20.645161-9.261419 20.645161-20.645161v-253.890065c0-11.383742-9.261419-20.645161-20.645161-20.645161h-20.645162z" fill="#6E6E96" opacity=".15" p-id="10941"></path><path d="M637.935484 728.774194h-20.645161c-34.151226 0-61.935484-27.784258-61.935484-61.935484v-253.890065c0-34.151226 27.784258-61.935484 61.935484-61.935484h20.645161c34.151226 0 61.935484 27.784258 61.935484 61.935484V666.83871c0 34.151226-27.784258 61.935484-61.935484 61.935484z m-20.645161-336.47071c-11.383742 0-20.645161 9.261419-20.645162 20.645161V666.83871c0 11.383742 9.261419 20.645161 20.645162 20.645161h20.645161c11.383742 0 20.645161-9.261419 20.645161-20.645161v-253.890065c0-11.383742-9.261419-20.645161-20.645161-20.645161h-20.645161z" fill="#d81e06" opacity=".15" p-id="10942" data-spm-anchor-id="a313x.7781069.0.i15" class=""></path></svg>